<?xml version="1.0" standalone="no"?>
<!DOCTYPE svg PUBLIC "-//W3C//DTD SVG 20010904//EN"
 "http://www.w3.org/TR/2001/REC-SVG-20010904/DTD/svg10.dtd">
<svg version="1.0" xmlns="http://www.w3.org/2000/svg"
 width="700.000000pt" height="700.000000pt" viewBox="0 0 700.000000 700.000000"
 preserveAspectRatio="xMidYMid meet">
<metadata>
Created by potrace 1.11, written by Peter Selinger 2001-2013
</metadata>
<g transform="translate(0.000000,700.000000) scale(0.100000,-0.100000)"
fill="#000000" stroke="none">
<path d="M1801 5195 l-1693 -1695 1696 -1696 1696 -1696 1696 1696 1696 1696
-1695 1695 c-932 932 -1697 1695 -1699 1695 -2 -1 -765 -763 -1697 -1695z
m3184 -242 l1453 -1452 -1469 -1470 -1469 -1469 -737 737 c-404 405 -1066
1066 -1469 1469 l-733 733 1467 1467 c1382 1383 1468 1467 1486 1452 10 -8
672 -668 1471 -1467z"/>
<path d="M4708 4235 c-2 -2 -28 -5 -58 -6 -188 -9 -401 -121 -517 -271 -108
-142 -158 -302 -150 -483 6 -136 11 -157 55 -265 68 -168 186 -291 355 -370
102 -48 209 -71 327 -71 180 1 324 50 453 156 56 47 145 151 136 159 -2 2 -53
38 -114 80 l-110 76 -25 -32 c-67 -86 -153 -147 -232 -165 -60 -13 -191 -8
-250 10 -82 25 -172 97 -219 176 -54 90 -72 158 -72 271 0 221 106 383 290
444 56 19 174 25 236 13 69 -13 146 -59 201 -118 l53 -57 104 75 c57 42 106
77 108 79 13 12 -82 126 -145 174 -70 54 -202 104 -304 115 -30 3 -69 7 -87 9
-18 2 -34 2 -35 1z"/>
<path d="M1689 4198 c0 -36 0 -1386 1 -1403 0 -8 223 -13 274 -6 4 0 7 174 5
385 -2 211 -3 384 -3 383 1 -1 40 -50 86 -109 47 -59 121 -147 165 -195 44
-48 97 -108 119 -133 42 -48 65 -69 76 -70 6 0 51 45 103 104 6 6 46 52 91
101 72 80 193 227 234 286 14 19 15 -17 15 -367 l0 -388 140 -1 140 0 0 723
c0 479 -3 722 -10 722 -18 0 -44 -27 -195 -199 -36 -41 -76 -86 -90 -101 -14
-14 -74 -82 -135 -150 -60 -69 -116 -132 -125 -140 -8 -8 -49 -53 -90 -99
l-74 -83 -46 49 c-25 27 -69 76 -99 109 -100 110 -226 248 -286 314 -55 60
-184 203 -246 271 -34 38 -49 37 -50 -3z"/>
<path d="M3434 3624 l-120 -123 124 -126 124 -125 125 125 125 126 -125 124
c-69 69 -127 124 -128 124 -2 -1 -58 -57 -125 -125z"/>
</g>
</svg>
